<?xml version="1.0" encoding="utf-8"?>
<!-- Generator: Adobe Illustrator 17.0.0, SVG Export Plug-In . SVG Version: 6.00 Build 0)  -->
<!DOCTYPE svg PUBLIC "-//W3C//DTD SVG 1.1//EN" "http://www.w3.org/Graphics/SVG/1.1/DTD/svg11.dtd">
<svg version="1.1" id="light-bulb" xmlns="http://www.w3.org/2000/svg" xmlns:xlink="http://www.w3.org/1999/xlink" x="0px" y="0px"
	 width="101px" height="165.5px" viewBox="0 0 101 165.5" style="enable-background:new 0 0 101 165.5;" xml:space="preserve">
<style type="text/css">
	.light-bulb-st0{fill:none;stroke:#888888;stroke-width:2;stroke-linecap:round;stroke-miterlimit:10;}
	.light-bulb-st1{fill:#333333;}
	.light-bulb-st2{fill:#222222;}
	.light-bulb-st3{fill:#FFDD44;fill-opacity:0.6;}
	.light-bulb-st4{fill:none;stroke:#FF9944;stroke-miterlimit:10;}
	.light-bulb-st5{fill:url(#light-bulb-light-bulb-light-bulb-light-bulb-SVGID-1-);}
	.light-bulb-st6{fill:url(#light-bulb-light-bulb-light-bulb-light-bulb-SVGID-2-);}
</style>
<g>
	<g>
		<line class="light-bulb-st0" x1="55.5" y1="160.5" x2="55.5" y2="164.5"/>
	</g>
	<g>
		<line class="light-bulb-st0" x1="45.5" y1="160.5" x2="45.5" y2="164.5"/>
	</g>
</g>
<path class="light-bulb-st1" d="M50.5,160.5c-13.807,0-25-6.193-25-20v-20h50v20C75.5,154.307,64.307,160.5,50.5,160.5z"/>
<ellipse class="light-bulb-st1" cx="50.5" cy="120.5" rx="25" ry="5"/>
<ellipse class="light-bulb-st2" cx="50.5" cy="120.5" rx="23" ry="4"/>
<path class="light-bulb-st3" d="M73.5,120.5c0,2.209-10.297,4-23,4s-23-1.791-23-4c0-27.614-27-42.386-27-70s22.386-50,50-50s50,22.386,50,50
	S73.5,92.886,73.5,120.5z"/>
<path class="light-bulb-st4" d="M45.5,124.5c0,0-3.5-53-15-74s-17.368,19.99,20,20c37.368-0.01,31.5-41,20-20s-15,74-15,74"/>
<radialGradient id="light-bulb-light-bulb-light-bulb-light-bulb-SVGID-1-" cx="50.5" cy="50.5" r="40" gradientUnits="userSpaceOnUse">
	<stop  offset="0" style="stop-color:#FFFFFF;stop-opacity:0.8"/>
	<stop  offset="1" style="stop-color:#FFFFFF;stop-opacity:0"/>
</radialGradient>
<circle class="light-bulb-st5" cx="50.5" cy="50.5" r="40"/>
<linearGradient id="light-bulb-light-bulb-light-bulb-light-bulb-SVGID-2-" gradientUnits="userSpaceOnUse" x1="50.5" y1="5.5" x2="50.5" y2="75.5">
	<stop  offset="0" style="stop-color:#FFFFFF;stop-opacity:0.8"/>
	<stop  offset="1" style="stop-color:#FFFFFF;stop-opacity:0"/>
</linearGradient>
<ellipse class="light-bulb-st6" cx="50.5" cy="40.5" rx="40" ry="35"/>
<path class="light-bulb-st4" d="M73.5,120.5c0,2.209-10.297,4-23,4s-23-1.791-23-4c0-27.614-27-42.386-27-70s22.386-50,50-50s50,22.386,50,50
	S73.5,92.886,73.5,120.5z"/>
<g>
</g>
<g>
</g>
<g>
</g>
<g>
</g>
<g>
</g>
<g>
</g>
<g>
</g>
<g>
</g>
<g>
</g>
<g>
</g>
<g>
</g>
<g>
</g>
<g>
</g>
<g>
</g>
<g>
</g>
</svg>
