<?xml version="1.0" encoding="utf-8"?>
<!-- Generator: Adobe Illustrator 17.0.0, SVG Export Plug-In . SVG Version: 6.00 Build 0)  -->
<!DOCTYPE svg PUBLIC "-//W3C//DTD SVG 1.1//EN" "http://www.w3.org/Graphics/SVG/1.1/DTD/svg11.dtd">
<svg version="1.1" id="pushbutton" xmlns="http://www.w3.org/2000/svg" xmlns:xlink="http://www.w3.org/1999/xlink" x="0px" y="0px"
	 width="28px" height="32px" viewBox="0 0 28 32" style="enable-background:new 0 0 28 32;" xml:space="preserve">
<style type="text/css">
	.pushbutton-st0{fill:none;stroke:#888888;stroke-width:2;stroke-linecap:round;stroke-miterlimit:10;}
	.pushbutton-st1{fill:#BBBBBB;}
	.pushbutton-st2{fill:#888888;}
	.pushbutton-st3{fill:#333333;stroke:#555555;stroke-miterlimit:10;}
	.pushbutton-st4{fill:#333333;}
</style>
<g>
	<g>
		<line class="pushbutton-st0" x1="24" y1="1" x2="24" y2="31"/>
	</g>
	<g>
		<line class="pushbutton-st0" x1="4" y1="1" x2="4" y2="31"/>
	</g>
</g>
<path class="pushbutton-st1" d="M28,27c0,1.105-0.895,2-2,2H2c-1.105,0-2-0.895-2-2V5c0-1.105,0.895-2,2-2h24c1.105,0,2,0.895,2,2V27z"/>
<circle class="pushbutton-st2" cx="14" cy="17" r="8"/>
<circle class="pushbutton-st3" cx="14" cy="16" r="7"/>
<g>
	<g>
		<g>
			<circle class="pushbutton-st4" cx="24" cy="25" r="1.5"/>
		</g>
		<g>
			<circle class="pushbutton-st4" cx="4" cy="25" r="1.5"/>
		</g>
	</g>
	<g>
		<g>
			<circle class="pushbutton-st4" cx="24" cy="7" r="1.5"/>
		</g>
		<g>
			<circle class="pushbutton-st4" cx="4" cy="7" r="1.5"/>
		</g>
	</g>
</g>
<g>
</g>
<g>
</g>
<g>
</g>
<g>
</g>
<g>
</g>
<g>
</g>
<g>
</g>
<g>
</g>
<g>
</g>
<g>
</g>
<g>
</g>
<g>
</g>
<g>
</g>
<g>
</g>
<g>
</g>
</svg>
