<?xml version="1.0" encoding="utf-8"?>
<!-- Generator: Adobe Illustrator 17.0.0, SVG Export Plug-In . SVG Version: 6.00 Build 0)  -->
<!DOCTYPE svg PUBLIC "-//W3C//DTD SVG 1.1//EN" "http://www.w3.org/Graphics/SVG/1.1/DTD/svg11.dtd">
<svg version="1.1" id="aa-battery" xmlns="http://www.w3.org/2000/svg" xmlns:xlink="http://www.w3.org/1999/xlink" x="0px" y="0px"
	 width="170px" height="50px" viewBox="0 0 170 50" style="enable-background:new 0 0 170 50;" xml:space="preserve">
<style type="text/css">
	.aa-battery-st0{fill:none;stroke:#888888;stroke-width:2;stroke-linecap:round;stroke-miterlimit:10;}
	.aa-battery-st1{fill:#333333;}
	.aa-battery-st2{fill:#222222;}
	.aa-battery-st3{fill:#BBBBBB;}
	.aa-battery-st4{fill:#997755;}
	.aa-battery-st5{fill:none;stroke:#FFFFFF;stroke-width:2;stroke-miterlimit:10;}
	.aa-battery-st6{fill:#FFFFFF;}
	.aa-battery-st7{fill:url(#aa-battery-aa-battery-aa-battery-aa-battery-SVGID-1-);}
	.aa-battery-st8{fill:none;stroke:#BBBBBB;stroke-width:2;stroke-linecap:round;stroke-miterlimit:10;}
</style>
<g>
	<g>
		<line class="aa-battery-st0" x1="161" y1="25" x2="169" y2="25"/>
	</g>
	<g>
		<line class="aa-battery-st0" x1="1" y1="25" x2="9" y2="25"/>
	</g>
</g>
<path class="aa-battery-st1" d="M165,47c0,1.657-1.343,3-3,3H8c-1.657,0-3-1.343-3-3V3c0-1.657,1.343-3,3-3h154c1.657,0,3,1.343,3,3V47z"/>
<rect x="10" y="3" class="aa-battery-st2" width="150" height="44"/>
<path class="aa-battery-st3" d="M156,33h2c1.105,0,2-0.895,2-2V19c0-1.105-0.895-2-2-2h-2V33z"/>
<path class="aa-battery-st1" d="M156,42c0,1.657-1.343,3-3,3H19c-1.657,0-3-1.343-3-3V8c0-1.657,1.343-3,3-3h134c1.657,0,3,1.343,3,3V42z"/>
<path class="aa-battery-st4" d="M106,5h47c1.657,0,3,1.343,3,3v34c0,1.657-1.343,3-3,3h-47V5z"/>
<line class="aa-battery-st5" x1="26" y1="22" x2="26" y2="28"/>
<circle class="aa-battery-st1" cx="131" cy="25" r="6"/>
<g>
	<line class="aa-battery-st5" x1="134" y1="25" x2="128" y2="25"/>
	<line class="aa-battery-st5" x1="131" y1="22" x2="131" y2="28"/>
</g>
<g>
	<path class="aa-battery-st6" d="M54.472,20.629h2.042l3.056,8.636h-1.957l-0.57-1.775h-3.181l-0.585,1.775h-1.888L54.472,20.629z
		 M54.353,26.002h2.212l-1.091-3.398L54.353,26.002z"/>
	<path class="aa-battery-st6" d="M63.138,20.629h2.042l3.056,8.636h-1.957l-0.57-1.775h-3.181l-0.585,1.775h-1.888L63.138,20.629z
		 M63.019,26.002h2.212l-1.091-3.398L63.019,26.002z"/>
	<path class="aa-battery-st6" d="M72.146,23.407V22.27c0.526-0.023,0.894-0.059,1.104-0.105c0.335-0.074,0.608-0.223,0.818-0.445
		c0.144-0.152,0.253-0.355,0.327-0.609c0.043-0.152,0.064-0.266,0.064-0.34h1.395v8.496h-1.711v-5.859H72.146z"/>
	<path class="aa-battery-st6" d="M78.738,27.514h1.775v1.752h-1.775V27.514z"/>
	<path class="aa-battery-st6" d="M83.303,26.992c0.066,0.363,0.193,0.644,0.38,0.841s0.46,0.296,0.818,0.296c0.413,0,0.728-0.146,0.944-0.437
		c0.216-0.291,0.324-0.657,0.324-1.099c0-0.434-0.102-0.799-0.304-1.098c-0.203-0.299-0.519-0.448-0.947-0.448
		c-0.203,0-0.378,0.025-0.526,0.076c-0.261,0.094-0.458,0.268-0.591,0.521l-1.497-0.07l0.596-4.693h4.674v1.418h-3.47l-0.304,1.857
		c0.258-0.168,0.458-0.279,0.603-0.334c0.242-0.09,0.536-0.135,0.883-0.135c0.702,0,1.315,0.236,1.837,0.709s0.784,1.16,0.784,2.062
		c0,0.785-0.252,1.486-0.755,2.104c-0.504,0.617-1.257,0.926-2.26,0.926c-0.808,0-1.471-0.217-1.99-0.65s-0.808-1.049-0.866-1.846
		H83.303z"/>
	<path class="aa-battery-st6" d="M93.964,20.629h1.875l-2.944,8.636h-1.705l-2.921-8.636h1.928l1.875,6.556L93.964,20.629z"/>
</g>
<linearGradient id="aa-battery-aa-battery-aa-battery-aa-battery-SVGID-1-" gradientUnits="userSpaceOnUse" x1="86" y1="5" x2="86" y2="45">
	<stop  offset="0" style="stop-color:#FFFFFF;stop-opacity:0"/>
	<stop  offset="0.5" style="stop-color:#FFFFFF;stop-opacity:0.25"/>
	<stop  offset="1" style="stop-color:#FFFFFF;stop-opacity:0"/>
</linearGradient>
<path class="aa-battery-st7" d="M156,42c0,1.657-1.343,3-3,3H19c-1.657,0-3-1.343-3-3V8c0-1.657,1.343-3,3-3h134c1.657,0,3,1.343,3,3V42z"/>
<g>
	<g>
		<line class="aa-battery-st8" x1="14" y1="13" x2="14" y2="37"/>
	</g>
	<g>
		<line class="aa-battery-st8" x1="11" y1="13" x2="11" y2="37"/>
	</g>
</g>
<g>
	<g>
		<path class="aa-battery-st1" d="M109,47c0,0-6.731-0.375-8-2c-1.02-1.306-1.343-4-3-4H72c-1.657,0-1.98,2.694-3,4c-1.269,1.625-8,2-8,2H109z"
			/>
	</g>
	<g>
		<path class="aa-battery-st1" d="M109,3c0,0-6.731,0.375-8,2c-1.02,1.306-1.343,4-3,4H72c-1.657,0-1.98-2.694-3-4c-1.269-1.625-8-2-8-2H109z"
			/>
	</g>
</g>
<g>
</g>
<g>
</g>
<g>
</g>
<g>
</g>
<g>
</g>
<g>
</g>
<g>
</g>
<g>
</g>
<g>
</g>
<g>
</g>
<g>
</g>
<g>
</g>
<g>
</g>
<g>
</g>
<g>
</g>
</svg>
